<svg id="Capa_1" data-name="Capa 1" xmlns="http://www.w3.org/2000/svg" xmlns:xlink="http://www.w3.org/1999/xlink" viewBox="0 0 180 33.16"><defs><style>.cls-1{fill:#232d60;}.cls-2{fill:#074a7c;}.cls-3{fill:url(#Degradado_sin_nombre_33);}</style><linearGradient id="Degradado_sin_nombre_33" y1="16.67" x2="32.97" y2="16.67" gradientUnits="userSpaceOnUse"><stop offset="0" stop-color="#abdbea"/><stop offset="0.04" stop-color="#94d3de"/><stop offset="0.1" stop-color="#7acad2"/><stop offset="0.16" stop-color="#65c3c7"/><stop offset="0.24" stop-color="#57bec0"/><stop offset="0.32" stop-color="#4fbbbc"/><stop offset="0.47" stop-color="#4cbabb"/><stop offset="0.58" stop-color="#45b8b9"/><stop offset="0.73" stop-color="#33b1b4"/><stop offset="0.9" stop-color="#14a6ac"/><stop offset="1" stop-color="#009fa6"/></linearGradient></defs><title>logo imondo 180px</title><path class="cls-1" d="M52,5.41a2.34,2.34,0,0,1-1.73-.73A2.34,2.34,0,0,1,49.57,3a2.37,2.37,0,0,1,.73-1.74A2.36,2.36,0,0,1,52,.49a2.4,2.4,0,0,1,1.74.72A2.41,2.41,0,0,1,54.5,3a2.37,2.37,0,0,1-.73,1.73A2.37,2.37,0,0,1,52,5.41Zm0,23.73a1.85,1.85,0,0,1-1.9-1.9V10.63a1.84,1.84,0,0,1,.54-1.38,1.9,1.9,0,0,1,3.27,1.38V27.24a1.89,1.89,0,0,1-.53,1.36A1.84,1.84,0,0,1,52,29.14Z"/><path class="cls-1" d="M94,29.29A10.47,10.47,0,0,1,88.67,28,9.59,9.59,0,0,1,85,24.31,10.7,10.7,0,0,1,83.71,19,10.76,10.76,0,0,1,85,13.56a9.59,9.59,0,0,1,3.64-3.65,11.28,11.28,0,0,1,10.63,0,9.59,9.59,0,0,1,3.64,3.65A10.76,10.76,0,0,1,104.26,19a10.8,10.8,0,0,1-1.3,5.36A9.47,9.47,0,0,1,99.34,28,10.48,10.48,0,0,1,94,29.29Zm0-3.36a6.54,6.54,0,0,0,3.44-.9,6.21,6.21,0,0,0,2.33-2.46,7.53,7.53,0,0,0,.84-3.62,7.62,7.62,0,0,0-.84-3.63,6.29,6.29,0,0,0-2.33-2.49,7.07,7.07,0,0,0-6.87,0,6.41,6.41,0,0,0-2.35,2.49A7.52,7.52,0,0,0,87.36,19a7.42,7.42,0,0,0,.86,3.62A6.32,6.32,0,0,0,90.57,25,6.53,6.53,0,0,0,94,25.93Z"/><path class="cls-1" d="M143.89,29.29a10.32,10.32,0,0,1-5.25-1.36A10.13,10.13,0,0,1,135,24.21a10.32,10.32,0,0,1-1.36-5.29,10.9,10.9,0,0,1,1.25-5.28,9.66,9.66,0,0,1,3.41-3.7,9,9,0,0,1,4.89-1.36,9.14,9.14,0,0,1,4.07.92A9,9,0,0,1,150.34,12V1.9a1.84,1.84,0,0,1,.54-1.38,2.06,2.06,0,0,1,2.74,0,1.87,1.87,0,0,1,.53,1.38v17a10.32,10.32,0,0,1-1.37,5.29,10,10,0,0,1-8.89,5.08Zm0-3.36a6.35,6.35,0,0,0,3.39-.91,6.42,6.42,0,0,0,2.35-2.52,7.52,7.52,0,0,0,.86-3.58,7.39,7.39,0,0,0-.86-3.59,6.51,6.51,0,0,0-2.35-2.48,6.75,6.75,0,0,0-6.77,0,6.69,6.69,0,0,0-2.39,2.48,7.29,7.29,0,0,0-.88,3.59,7.41,7.41,0,0,0,.88,3.58A6.59,6.59,0,0,0,140.51,25,6.39,6.39,0,0,0,143.89,25.93Z"/><path class="cls-1" d="M169.74,29.29A10.53,10.53,0,0,1,164.4,28a9.57,9.57,0,0,1-3.63-3.65A10.6,10.6,0,0,1,159.44,19a10.66,10.66,0,0,1,1.33-5.39,9.57,9.57,0,0,1,3.63-3.65,10.53,10.53,0,0,1,5.34-1.33A10.41,10.41,0,0,1,175,9.91a9.66,9.66,0,0,1,3.64,3.65A10.76,10.76,0,0,1,180,19a10.8,10.8,0,0,1-1.31,5.36A9.45,9.45,0,0,1,175.08,28,10.53,10.53,0,0,1,169.74,29.29Zm0-3.36a6.5,6.5,0,0,0,3.43-.9,6.14,6.14,0,0,0,2.33-2.46,7.53,7.53,0,0,0,.84-3.62,7.62,7.62,0,0,0-.84-3.63,6.22,6.22,0,0,0-2.33-2.49,7.05,7.05,0,0,0-6.86,0A6.34,6.34,0,0,0,164,15.32,7.41,7.41,0,0,0,163.1,19a7.31,7.31,0,0,0,.86,3.62A6.25,6.25,0,0,0,166.31,25,6.5,6.5,0,0,0,169.74,25.93Z"/><path class="cls-2" d="M77.91,12.22a6.36,6.36,0,0,0-2.56-2.74,7.5,7.5,0,0,0-3.77-.94,8.73,8.73,0,0,0-4.31,1.05A7.37,7.37,0,0,0,65,11.46a6.14,6.14,0,0,0-2.11-2,7.53,7.53,0,0,0-3.77-.94A7.77,7.77,0,0,0,56.57,9a1.08,1.08,0,0,0-.72,1v1.07a1.09,1.09,0,0,0,1.35,1.07A4.72,4.72,0,0,1,58.41,12a4.14,4.14,0,0,1,3,1.13,4.68,4.68,0,0,1,1.16,3.49V27.27a1.86,1.86,0,0,0,1.9,1.91,1.78,1.78,0,0,0,1.38-.55,1.87,1.87,0,0,0,.53-1.36V16.75a4.8,4.8,0,0,1,1.25-3.43,4.53,4.53,0,0,1,6.21-.21A4.72,4.72,0,0,1,75,16.6V27.27a1.85,1.85,0,0,0,.55,1.36,2,2,0,0,0,2.74,0,1.86,1.86,0,0,0,.52-1.36V16.6A9.64,9.64,0,0,0,77.91,12.22Z"/><path class="cls-1" d="M127.53,12.87a8,8,0,0,0-3.21-3.23,9.58,9.58,0,0,0-4.61-1.1,9.31,9.31,0,0,0-3.91.82.88.88,0,0,0-.52.82v1.43a.9.9,0,0,0,1.25.82h0A6.41,6.41,0,0,1,119,12a6.7,6.7,0,0,1,3,.65,4.84,4.84,0,0,1,2.11,2,6.81,6.81,0,0,1,.79,3.46v9.18a1.84,1.84,0,0,0,.54,1.36,2,2,0,0,0,2.72,0,1.84,1.84,0,0,0,.54-1.36V18.09A10.71,10.71,0,0,0,127.53,12.87Z"/><path class="cls-1" d="M113.37,10.63a1.9,1.9,0,0,0-.52-1.38,2.08,2.08,0,0,0-2.75,0,1.84,1.84,0,0,0-.54,1.38V27.27a1.86,1.86,0,0,0,1.9,1.91,1.82,1.82,0,0,0,1.39-.55,1.9,1.9,0,0,0,.52-1.36V10.63Z"/><path class="cls-3" d="M33,16.6a17.87,17.87,0,0,0-.13-2.08A16.57,16.57,0,1,0,33,16.6Z"/><path class="cls-1" d="M1,22.43a16.43,16.43,0,0,0,4.23,6.31c10.4,4.46,20.11-.22,25.59-4a16.39,16.39,0,0,0,.76-1.51A31.48,31.48,0,0,1,1,22.43Z"/><path class="cls-1" d="M32.25,11.83C28.32,14.41,16.31,20.71.13,14.62A15.46,15.46,0,0,0,0,16.67c0,.34,0,.68,0,1C7,21.21,21,25,33,17.38c0-.23,0-.47,0-.71A16.48,16.48,0,0,0,32.25,11.83Z"/><path class="cls-1" d="M4.31,5.57A16.45,16.45,0,0,0,1.44,9.94C11.69,14.07,23.22,11,30.21,7.54a14.73,14.73,0,0,0-1.12-1.48A38.85,38.85,0,0,1,4.31,5.57Z"/></svg>