<?xml version="1.0" standalone="no"?>
<!DOCTYPE svg PUBLIC "-//W3C//DTD SVG 20010904//EN"
 "http://www.w3.org/TR/2001/REC-SVG-20010904/DTD/svg10.dtd">
<svg version="1.0" xmlns="http://www.w3.org/2000/svg"
 width="986.000000pt" height="777.000000pt" viewBox="0 0 986.000000 777.000000"
 preserveAspectRatio="xMidYMid meet">
<metadata>
Created by potrace 1.16, written by Peter Selinger 2001-2019
</metadata>
<g transform="translate(0.000000,777.000000) scale(0.100000,-0.100000)"
fill="#000000" stroke="none">
<path d="M547 7714 c-198 -48 -383 -223 -449 -424 -46 -142 -33 -342 31 -475
83 -174 259 -316 439 -354 38 -8 1238 -11 4370 -11 4813 0 4373 -7 4526 72
152 79 277 237 320 404 21 81 21 247 0 328 -22 84 -85 202 -144 269 -63 70
-170 142 -263 176 l-72 26 -4350 2 c-3724 1 -4358 -1 -4408 -13z"/>
<path d="M610 4514 c-212 -55 -391 -232 -456 -449 -25 -83 -25 -267 0 -350 65
-217 248 -396 461 -450 52 -13 562 -15 4385 -15 3823 0 4333 2 4385 15 210 53
397 235 459 444 22 75 22 287 0 362 -62 211 -247 390 -459 444 -52 13 -553 15
-4390 14 -3741 0 -4337 -2 -4385 -15z"/>
<path d="M610 1314 c-212 -55 -391 -232 -456 -449 -25 -83 -25 -267 0 -350 65
-217 248 -396 461 -450 52 -13 562 -15 4385 -15 3823 0 4333 2 4385 15 210 53
397 235 459 444 22 75 22 287 0 362 -62 211 -247 390 -459 444 -52 13 -553 15
-4390 14 -3741 0 -4337 -2 -4385 -15z"/>
</g>
</svg>
