<svg xmlns="http://www.w3.org/2000/svg" viewBox="0 0 78.94 76.84"><defs><style>.cls-1{fill:#1d1d1b;}</style></defs><title>carrito</title><g id="Capa_1" data-name="Capa 1"><path class="cls-1" d="M47.4,64.09A6.38,6.38,0,1,1,41,70.48,6.39,6.39,0,0,1,47.4,64.09Z"/><path class="cls-1" d="M22.57,64.09a6.38,6.38,0,1,1-6.36,6.39A6.39,6.39,0,0,1,22.57,64.09Z"/><path class="cls-1" d="M54.66,56.81H19.21a7.44,7.44,0,0,1-7.44-7.43V14H71.5A7.44,7.44,0,0,1,77.86,25.3L61,53.22A7.51,7.51,0,0,1,54.66,56.81ZM19.19,21.43v28l35.47,0L71.52,21.47Z"/><path class="cls-1" d="M19.19,17.72H11.77V7.47L0,7.41V0H11.72a7.48,7.48,0,0,1,7.47,7.47Z"/></g></svg>