<svg xmlns="http://www.w3.org/2000/svg" xmlns:xlink="http://www.w3.org/1999/xlink" viewBox="0 0 12.99 28.14"><defs><style>.cls-1{fill:none;}.cls-2{clip-path:url(#clip-path);}.cls-3{fill:#ffffff;}.cls-3,.cls-4{opacity:0.2;}.cls-4{fill:#1f2754;}.cls-5{fill:#ffffff;}</style><clipPath id="clip-path"><rect class="cls-1" x="-1514.68" y="156.16" width="1454.69" height="664.97"/></clipPath></defs><title>fb</title><g id="fondo"><g class="cls-2"><path class="cls-3" d="M-1718.71,112.26-400,492.17c25.7,12.95,58.16,5,74.91-18.44L53.33-80c28.77-40.21.7-95.69-48.61-92.17l-1701.29,174C-1755.71,6.1-1771.65,85.57-1718.71,112.26Z"/><path class="cls-4" d="M68.23,1433.19-601.86,994.38c-38-32.42-22.77-83.47,6.27-124.08L68.23-101.81Z"/></g></g><g id="Capa_1" data-name="Capa 1"><path class="cls-5" d="M3,28.14H8.61V14h4L13,9.2H8.61V6.49c0-1.12.23-1.56,1.31-1.56H13V0H9.06C4.85,0,3,1.86,3,5.41V9.2H0V14H3Z"/></g></svg>