<svg xmlns="http://www.w3.org/2000/svg" viewBox="0 0 30.18 30.18"><defs><style>.cls-1{fill:#ffffff;}</style></defs><title>ig</title><g id="Capa_1" data-name="Capa 1"><path class="cls-1" d="M15.09,2.72c4,0,4.51,0,6.1.09a8.07,8.07,0,0,1,2.8.52,4.6,4.6,0,0,1,1.74,1.13,4.68,4.68,0,0,1,1.13,1.73A8.58,8.58,0,0,1,27.38,9c.07,1.6.09,2.07.09,6.1s0,4.51-.09,6.1a8.58,8.58,0,0,1-.52,2.8A5,5,0,0,1,24,26.86a8.58,8.58,0,0,1-2.8.52c-1.59.07-2.07.09-6.1.09s-4.51,0-6.1-.09a8.58,8.58,0,0,1-2.8-.52,4.68,4.68,0,0,1-1.73-1.13A4.6,4.6,0,0,1,3.33,24a8.07,8.07,0,0,1-.52-2.8c-.08-1.59-.09-2.07-.09-6.1s0-4.5.09-6.1a8.07,8.07,0,0,1,.52-2.8A4.56,4.56,0,0,1,4.46,4.46,4.56,4.56,0,0,1,6.19,3.33,8.07,8.07,0,0,1,9,2.81c1.6-.08,2.07-.09,6.1-.09m0-2.72C11,0,10.48,0,8.87.09a11,11,0,0,0-3.66.7A7.41,7.41,0,0,0,2.53,2.53,7.41,7.41,0,0,0,.79,5.21a11,11,0,0,0-.7,3.66C0,10.48,0,11,0,15.09s0,4.62.09,6.22A11.1,11.1,0,0,0,.79,25a7.46,7.46,0,0,0,1.74,2.67,7.28,7.28,0,0,0,2.68,1.74,10.78,10.78,0,0,0,3.66.7c1.61.08,2.12.09,6.22.09s4.61,0,6.22-.09a10.85,10.85,0,0,0,3.67-.7A7.72,7.72,0,0,0,29.39,25a10.85,10.85,0,0,0,.7-3.67c.08-1.6.09-2.12.09-6.22s0-4.61-.09-6.22a10.78,10.78,0,0,0-.7-3.66,7.28,7.28,0,0,0-1.74-2.68A7.46,7.46,0,0,0,25,.79a11.1,11.1,0,0,0-3.67-.7C19.7,0,19.19,0,15.09,0"/><path class="cls-1" d="M15.09,7.34a7.75,7.75,0,1,0,7.75,7.75,7.75,7.75,0,0,0-7.75-7.75m0,12.78a5,5,0,1,1,5-5,5,5,0,0,1-5,5"/><path class="cls-1" d="M25,7a1.81,1.81,0,1,1-1.81-1.82A1.81,1.81,0,0,1,25,7"/></g></svg>