<svg xmlns="http://www.w3.org/2000/svg" viewBox="0 0 51.03 51.03"><defs><style>.cls-1{fill:#ffffff;}</style></defs><title>messenger</title><g id="Capa_1" data-name="Capa 1"><path class="cls-1" d="M25.51,0A25,25,0,0,0,0,24.46a24,24,0,0,0,8.5,18.2V50A1.06,1.06,0,0,0,9.57,51a1,1,0,0,0,.56-.16l5.93-3.7a26.33,26.33,0,0,0,9.45,1.74A25,25,0,0,0,51,24.46,25,25,0,0,0,25.51,0ZM42.22,18.83,29.46,31.59a1.06,1.06,0,0,1-1.44.05l-6.89-5.9-11,6a1.07,1.07,0,0,1-1.26-.18,1.06,1.06,0,0,1,0-1.51L21.57,17.33A1.07,1.07,0,0,1,23,17.27l6.87,5.9,11.06-6a1.07,1.07,0,0,1,1.27,1.69Z"/></g></svg>