<svg xmlns="http://www.w3.org/2000/svg" viewBox="0 0 30.18 30.18"><defs><style>.cls-1{fill:#ffffff;fill-rule:evenodd;}</style></defs><title>wa</title><g id="Capa_1" data-name="Capa 1"><path class="cls-1" d="M30.17,14.33A14.82,14.82,0,0,0,.56,14.06c0,.21,0,.43,0,.64a14.55,14.55,0,0,0,2.12,7.6L0,30.18l8.21-2.6a14.83,14.83,0,0,0,22-12.88C30.18,14.58,30.18,14.45,30.17,14.33ZM15.36,27.06a12.45,12.45,0,0,1-6.85-2L3.72,26.54,5.28,22A12.24,12.24,0,0,1,2.91,14.7q0-.6.06-1.2a12.46,12.46,0,0,1,24.81.24c0,.32,0,.64,0,1A12.42,12.42,0,0,1,15.36,27.06Z"/><path class="cls-1" d="M22.15,17.67c-.36-.18-2.15-1.05-2.48-1.17s-.58-.18-.82.18-.94,1.17-1.15,1.41-.42.27-.79.09A10,10,0,0,1,14,16.39a10.71,10.71,0,0,1-2-2.49c-.21-.36,0-.56.16-.74s.36-.42.55-.63l.13-.17a4.19,4.19,0,0,0,.23-.43.66.66,0,0,0,0-.63c-.09-.18-.82-2-1.12-2.68s-.61-.6-.82-.6-.45,0-.69,0a1.36,1.36,0,0,0-1,.45,4.06,4.06,0,0,0-1.26,3,4.63,4.63,0,0,0,.18,1.23,8.2,8.2,0,0,0,1.3,2.5c.18.23,2.51,4,6.2,5.44s3.7,1,4.36.89a3.59,3.59,0,0,0,2.45-1.71,3,3,0,0,0,.22-1.71C22.76,17.94,22.51,17.85,22.15,17.67Z"/></g></svg>