<?xml version="1.0" standalone="no"?>
<!DOCTYPE svg PUBLIC "-//W3C//DTD SVG 20010904//EN"
 "http://www.w3.org/TR/2001/REC-SVG-20010904/DTD/svg10.dtd">
<svg version="1.0" xmlns="http://www.w3.org/2000/svg"
 width="1200.000000pt" height="1198.000000pt" viewBox="0 0 1200.000000 1198.000000"
 preserveAspectRatio="xMidYMid meet">
<metadata>
Created by potrace 1.16, written by Peter Selinger 2001-2019
</metadata>
<g transform="translate(0.000000,1198.000000) scale(0.100000,-0.100000)"
fill="#000000" stroke="none">
<path d="M1715 11964 c-439 -67 -821 -259 -1131 -568 -312 -313 -504 -697
-568 -1137 -14 -95 -16 -560 -16 -4279 0 -3719 2 -4184 16 -4279 63 -437 258
-825 569 -1136 272 -273 603 -455 977 -539 l115 -26 4327 0 c3882 0 4335 2
4402 16 282 58 562 185 801 362 110 82 299 270 382 380 212 281 345 598 395
943 14 95 16 560 16 4279 0 4552 4 4246 -55 4480 -91 364 -266 672 -529 936
-313 313 -696 504 -1137 568 -95 14 -560 16 -4290 15 -3493 -1 -4199 -3 -4274
-15z m7130 -5594 c135 -20 251 -104 311 -225 26 -55 29 -69 29 -165 0 -96 -3
-110 -29 -165 -60 -121 -176 -205 -311 -225 -96 -13 -5594 -13 -5690 0 -135
20 -251 104 -311 225 -26 55 -29 69 -29 165 0 96 3 110 29 165 58 117 177 206
301 224 87 12 5612 13 5700 1z"/>
</g>
</svg>
