<?xml version="1.0" standalone="no"?>
<!DOCTYPE svg PUBLIC "-//W3C//DTD SVG 20010904//EN"
 "http://www.w3.org/TR/2001/REC-SVG-20010904/DTD/svg10.dtd">
<svg version="1.0" xmlns="http://www.w3.org/2000/svg"
 width="1197.000000pt" height="1197.000000pt" viewBox="0 0 1197.000000 1197.000000"
 preserveAspectRatio="xMidYMid meet">
<metadata>
Created by potrace 1.16, written by Peter Selinger 2001-2019
</metadata>
<g transform="translate(0.000000,1197.000000) scale(0.100000,-0.100000)"
fill="#000000" stroke="none">
<path d="M1685 11963 c-11 -2 -58 -11 -105 -20 -125 -23 -360 -103 -479 -163
-218 -109 -370 -218 -537 -384 -260 -261 -424 -548 -531 -931 l-28 -100 -3
-4350 c-3 -4882 -10 -4395 74 -4654 101 -310 259 -566 489 -796 272 -273 603
-455 977 -539 l115 -26 4327 0 c3882 0 4335 2 4402 16 282 58 562 185 801 362
110 82 299 270 382 380 181 239 306 510 374 811 l22 96 0 4315 0 4315 -22 96
c-90 397 -270 728 -547 1005 -299 298 -660 486 -1076 559 -75 13 -610 15
-4350 14 -2346 -1 -4274 -3 -4285 -6z m4461 -2828 c120 -59 204 -175 224 -310
6 -43 10 -521 10 -1257 l0 -1188 1188 0 c736 0 1214 -4 1257 -10 135 -20 251
-104 311 -225 26 -55 29 -69 29 -165 0 -96 -3 -110 -29 -165 -60 -121 -176
-205 -311 -225 -43 -6 -521 -10 -1257 -10 l-1188 0 0 -1187 c0 -737 -4 -1215
-10 -1258 -20 -135 -104 -251 -225 -311 -55 -26 -69 -29 -165 -29 -96 0 -110
3 -165 29 -121 60 -205 176 -225 311 -6 43 -10 521 -10 1258 l0 1187 -1187 0
c-737 0 -1215 4 -1258 10 -135 20 -251 104 -311 225 -26 55 -29 69 -29 165 0
96 3 110 29 165 60 121 176 205 311 225 43 6 521 10 1258 10 l1187 0 0 1188
c0 736 4 1214 10 1257 18 121 81 222 180 285 75 48 122 60 226 57 76 -2 100
-7 150 -32z"/>
</g>
</svg>
