<svg xmlns="http://www.w3.org/2000/svg" viewBox="0 0 57.83 67.2"><defs><style>.cls-1{fill:#1d1d1b;}</style></defs><title>tacho</title><g id="Capa_1" data-name="Capa 1"><path class="cls-1" d="M46.83,67.2H11a2,2,0,0,1-2-1.79l-4.56-48a2,2,0,0,1,2-2.17h45a2,2,0,0,1,2,2.17l-4.56,48A2,2,0,0,1,46.83,67.2Zm-34-4H45l4.18-44H8.62Z"/><path class="cls-1" d="M28.91,56.89a2,2,0,0,1-2-2V26.43a2,2,0,1,1,4,0V54.9A2,2,0,0,1,28.91,56.89Z"/><path class="cls-1" d="M21.54,56.89a2,2,0,0,1-2-1.8L16.86,26.62a2,2,0,0,1,4-.38l2.7,28.48a2,2,0,0,1-1.79,2.16Z"/><path class="cls-1" d="M36.29,56.89H36.1a2,2,0,0,1-1.79-2.16L37,26.24a2,2,0,0,1,4,.38l-2.7,28.47A2,2,0,0,1,36.29,56.89Z"/><path class="cls-1" d="M55,17.23H2.8A2.81,2.81,0,0,1,0,14.42V2.8A2.81,2.81,0,0,1,2.8,0H55a2.8,2.8,0,0,1,2.8,2.8V14.42A2.8,2.8,0,0,1,55,17.23Zm-50.24-4H53a.82.82,0,0,0,.82-.82V4.79A.82.82,0,0,0,53,4H4.79A.82.82,0,0,0,4,4.79v7.64A.82.82,0,0,0,4.79,13.25Z"/></g></svg>