<?xml version="1.0" standalone="no"?>
<!DOCTYPE svg PUBLIC "-//W3C//DTD SVG 20010904//EN"
 "http://www.w3.org/TR/2001/REC-SVG-20010904/DTD/svg10.dtd">
<svg version="1.0" xmlns="http://www.w3.org/2000/svg"
 width="963.000000pt" height="966.000000pt" viewBox="0 0 963.000000 966.000000"
 preserveAspectRatio="xMidYMid meet">
<metadata>
Created by potrace 1.16, written by Peter Selinger 2001-2019
</metadata>
<g transform="translate(0.000000,966.000000) scale(0.100000,-0.100000)"
fill="#000000" stroke="none">
<path d="M745 8920 l-730 -730 1660 -1660 1660 -1660 -1660 -1660 -1660 -1660
733 -732 732 -733 1660 1660 1660 1660 1660 -1660 1660 -1660 732 733 733 732
-1660 1660 -1660 1660 1660 1660 1660 1660 -733 732 -732 733 -1660 -1660
-1660 -1660 -1658 1658 c-911 911 -1659 1657 -1662 1657 -3 0 -334 -329 -735
-730z"/>
</g>
</svg>
