<?xml version="1.0" standalone="no"?>
<!DOCTYPE svg PUBLIC "-//W3C//DTD SVG 20010904//EN"
 "http://www.w3.org/TR/2001/REC-SVG-20010904/DTD/svg10.dtd">
<svg version="1.0" xmlns="http://www.w3.org/2000/svg"
 width="1166.000000pt" height="893.000000pt" viewBox="0 0 1166.000000 893.000000"
 preserveAspectRatio="xMidYMid meet">
<metadata>
Created by potrace 1.16, written by Peter Selinger 2001-2019
</metadata>
<g transform="translate(0.000000,893.000000) scale(0.100000,-0.100000)"
fill="#ffffff" stroke="none">
<path d="M7779 6343 c-1273 -1396 -2503 -2745 -2735 -2999 l-421 -461 -1659
1368 c-912 753 -1664 1368 -1671 1367 -6 -2 -292 -363 -634 -802 -506 -651
-619 -801 -607 -810 8 -6 1084 -902 2392 -1991 1308 -1089 2384 -1980 2391
-1980 9 0 6441 7091 6768 7462 17 20 3 33 -742 702 -418 374 -762 681 -764
681 -3 0 -1046 -1142 -2318 -2537z"/>
</g>
</svg>
