<?xml version="1.0" standalone="no"?>
<!DOCTYPE svg PUBLIC "-//W3C//DTD SVG 20010904//EN"
 "http://www.w3.org/TR/2001/REC-SVG-20010904/DTD/svg10.dtd">
<svg version="1.0" xmlns="http://www.w3.org/2000/svg"
 width="896.000000pt" height="451.000000pt" viewBox="0 0 896.000000 451.000000"
 preserveAspectRatio="xMidYMid meet">
<metadata>
Created by potrace 1.16, written by Peter Selinger 2001-2019
</metadata>
<g transform="translate(0.000000,451.000000) scale(0.100000,-0.100000)"
fill="#000000" stroke="none">
<path d="M4235 4469 c-881 -45 -1921 -417 -2802 -1002 -497 -330 -899 -699
-1229 -1130 l-75 -97 47 -63 c259 -339 509 -595 844 -862 947 -756 2182 -1254
3235 -1304 786 -38 1704 190 2635 655 809 404 1422 879 1862 1440 54 69 98
129 98 134 0 5 -45 66 -100 137 -437 558 -1059 1038 -1865 1441 -926 462
-1860 692 -2650 651z m531 -534 c593 -66 1198 -251 1833 -561 594 -289 1084
-628 1471 -1018 l115 -116 -120 -121 c-805 -810 -2202 -1470 -3348 -1580 -183
-17 -571 -7 -749 20 -488 75 -955 218 -1447 445 -451 208 -940 517 -1296 821
-129 110 -415 396 -415 415 0 19 286 306 415 416 450 383 1057 741 1643 968
430 167 933 291 1292 319 129 10 487 5 606 -8z"/>
<path d="M4251 3929 c-796 -84 -1423 -711 -1510 -1511 -60 -543 158 -1101 569
-1456 618 -533 1519 -560 2155 -64 196 152 360 349 469 561 110 216 169 422
185 655 22 320 -38 617 -181 898 -78 154 -160 268 -288 402 -367 382 -876 569
-1399 515z m1002 -254 c138 -48 254 -141 329 -266 90 -148 109 -328 52 -489
-17 -47 -47 -112 -68 -143 -107 -160 -303 -267 -493 -267 -236 0 -448 136
-547 351 -41 90 -56 157 -56 252 0 289 228 545 525 591 61 9 190 -5 258 -29z"/>
</g>
</svg>
