<?xml version="1.0" standalone="no"?>
<!DOCTYPE svg PUBLIC "-//W3C//DTD SVG 20010904//EN"
 "http://www.w3.org/TR/2001/REC-SVG-20010904/DTD/svg10.dtd">
<svg version="1.0" xmlns="http://www.w3.org/2000/svg"
 width="728.000000pt" height="747.000000pt" viewBox="0 0 728.000000 747.000000"
 preserveAspectRatio="xMidYMid meet">
<metadata>
Created by potrace 1.16, written by Peter Selinger 2001-2019
</metadata>
<g transform="translate(0.000000,747.000000) scale(0.100000,-0.100000)"
fill="#000000" stroke="none">
<path d="M3435 7404 c-16 -2 -77 -9 -135 -15 -58 -6 -166 -22 -240 -35 -1415
-258 -2551 -1306 -2915 -2688 -79 -301 -105 -502 -112 -851 -7 -375 11 -574
83 -899 152 -687 503 -1311 1020 -1816 624 -609 1406 -961 2289 -1031 185 -15
566 -6 755 16 347 42 652 117 945 232 1198 473 1959 1536 2090 2923 28 289 14
748 -30 997 l-6 31 -1562 -4 c-859 -3 -1644 -7 -1744 -10 l-183 -6 0 -629 0
-629 1040 0 1041 0 -7 -37 c-22 -125 -90 -313 -165 -459 -267 -520 -751 -888
-1339 -1018 -378 -83 -796 -77 -1142 18 -903 248 -1560 1030 -1669 1985 -15
136 -7 494 15 621 86 498 309 932 661 1285 351 351 793 570 1295 641 124 18
407 20 535 4 433 -52 827 -223 1149 -498 28 -23 56 -41 62 -40 7 2 211 194
454 428 243 234 467 448 499 476 l56 52 -64 58 c-275 252 -636 483 -981 629
-288 121 -583 201 -935 251 -104 15 -681 29 -760 18z"/>
</g>
</svg>
