<?xml version="1.0" standalone="no"?>
<!DOCTYPE svg PUBLIC "-//W3C//DTD SVG 20010904//EN"
 "http://www.w3.org/TR/2001/REC-SVG-20010904/DTD/svg10.dtd">
<svg version="1.0" xmlns="http://www.w3.org/2000/svg"
 width="1084.000000pt" height="705.000000pt" viewBox="0 0 1084.000000 705.000000"
 preserveAspectRatio="xMidYMid meet">
<metadata>
Created by potrace 1.16, written by Peter Selinger 2001-2019
</metadata>
<g transform="translate(0.000000,705.000000) scale(0.100000,-0.100000)"
fill="#000000" stroke="none">
<path d="M5335 6921 c-22 -10 -60 -40 -85 -67 -88 -96 -5135 -6425 -5153
-6462 -27 -56 -20 -157 15 -209 40 -61 107 -100 181 -108 34 -3 2371 -5 5192
-3 l5130 3 40 22 c47 25 86 65 110 112 22 44 22 138 1 180 -17 33 -5111 6418
-5174 6485 -20 21 -51 45 -69 52 -46 20 -140 17 -188 -5z"/>
</g>
</svg>
